<svg version="1.2" xmlns="http://www.w3.org/2000/svg" viewBox="0 0 32 32" width="32" height="32">
	<title>chit_favicon</title>
	<style>
		.s0 { fill: #006400 } 
		.s1 { fill: #510a6b } 
	</style>
	<g id="Layer 1">
		<path id="Shape 1" fill-rule="evenodd" class="s0" d="m16.3 14.3c-7.1 0-12.8-2.4-12.8-5.2 0-2.9 5.7-5.2 12.8-5.2 7.1 0 12.8 2.3 12.8 5.2 0 2.8-5.7 5.2-12.8 5.2z"/>
		<path id="Shape 2" fill-rule="evenodd" class="s0" d="m23.5 13.2l4.7-2.8 1.1 5.8z"/>
		<path id="Shape 1 copy" fill-rule="evenodd" class="s1" d="m15.5 28.3c-7.1 0-12.8-2.3-12.8-5.2 0-2.9 5.7-5.2 12.8-5.2 7.1 0 12.8 2.3 12.8 5.2 0 2.9-5.7 5.2-12.8 5.2z"/>
		<path id="Shape 2 copy" fill-rule="evenodd" class="s1" d="m8.2 19l-4.7 2.7-1-5.8v0.1z"/>
	</g>
</svg>